<?xml version="1.0" encoding="UTF-8"?>
<svg id="Layer_2" data-name="Layer 2" xmlns="http://www.w3.org/2000/svg" xmlns:xlink="http://www.w3.org/1999/xlink" viewBox="0 0 261.27 236.07">
  <defs>
    <style>
      .cls-1 {
        fill: url(#linear-gradient-2);
      }

      .cls-2 {
        fill: #171717;
      }

      .cls-3 {
        fill: url(#linear-gradient);
      }
    </style>
    <linearGradient id="linear-gradient" x1="169.53" y1="103.15" x2="136.99" y2="142.05" gradientUnits="userSpaceOnUse">
      <stop offset="0" stop-color="#171717" stop-opacity="0"/>
      <stop offset="1" stop-color="#171717"/>
    </linearGradient>
    <linearGradient id="linear-gradient-2" x1="88.58" y1="126.76" x2="126.81" y2="96.72" xlink:href="#linear-gradient"/>
  </defs>
  <g id="Layer_1" data-name="Layer 1">
    <path class="cls-2" d="M213.69,118.03l-68.16,118.03h-61.81c-13.13,0-25.28-6.99-31.87-18.34l-.04-.06h83.08l57.46-99.63-17.35-30.16h21.27l17.41,30.16Z"/>
    <path class="cls-2" d="M126.38,18.53l-57.46,99.5,17.35,30.1h-21.27l-17.41-30.1L115.8,0h61.71c13.19,0,25.37,7.04,31.95,18.47h0s-83.08.06-83.08.06Z"/>
    <polygon class="cls-3" points="170.78 108.77 142.73 157.4 141.36 159.76 139.99 162.06 138.94 163.93 118.66 162.06 119.97 159.76 121.34 157.4 160.08 90.24 170.78 108.77"/>
    <path class="cls-2" d="M139.99,162.06l-1.06,1.87-1.31,2.24-1.31,2.24-14.93,25.93H38.38L4.95,136.48c-6.59-11.41-6.59-25.48,0-36.89L51.86,18.42C58.45,7.02,70.62,0,83.78,0h5.03L20.65,118.03l30.85,53.42h61.75l2.86-4.98,1.24-2.18,1.31-2.24h21.33Z"/>
    <polygon class="cls-1" points="141.8 75.31 141.67 75.56 140.31 77.86 138.94 80.22 101.19 145.71 90.99 126.49 117.67 80.22 119.04 77.86 120.41 75.56 123.27 70.65 141.8 75.31"/>
    <path class="cls-2" d="M177.49,236.07h-5.03l68.16-118.03-30.85-53.48h-61.82l-3.73,6.59-1.24,2.11-1.18,2.05-.12.25h-21.27l2.86-4.91,1.18-2.05,1.18-2.11,14.3-24.75h82.96l33.43,57.86c6.59,11.41,6.59,25.48,0,36.89l-46.92,81.17c-6.59,11.4-18.75,18.42-31.92,18.42Z"/>
  </g>
</svg>